<?xml version="1.0" encoding="UTF-8" ?>
<!DOCTYPE svg PUBLIC "-//W3C//DTD SVG 1.1//EN" "http://www.w3.org/Graphics/SVG/1.1/DTD/svg11.dtd">
<svg width="1185pt" height="355pt" viewBox="0 0 1185 355" version="1.1" xmlns="http://www.w3.org/2000/svg">
<g id="#000000ff">
<path fill="#000000" opacity="1.00" d=" M 518.05 38.04 C 524.29 25.55 529.97 12.76 536.92 0.64 C 540.13 4.27 543.16 8.06 546.06 11.96 C 552.74 20.92 559.84 29.55 566.45 38.57 C 568.40 41.10 570.25 43.87 573.05 45.55 C 576.89 44.27 580.11 41.73 583.31 39.34 C 591.47 33.11 600.00 27.38 608.23 21.24 C 612.21 18.26 616.29 15.42 620.58 12.89 C 624.44 31.90 626.98 51.16 631.01 70.14 C 650.34 67.71 669.59 64.71 688.92 62.18 C 685.27 74.97 680.84 87.52 677.07 100.27 C 675.02 106.29 672.98 112.34 672.03 118.66 C 686.24 123.46 700.38 128.48 714.52 133.48 C 718.48 134.90 722.39 136.46 726.26 138.11 C 713.07 152.35 698.68 165.41 685.06 179.24 C 697.63 194.18 712.01 207.54 724.30 222.71 C 705.85 228.73 687.06 233.68 668.72 240.02 C 670.98 250.84 674.53 261.31 677.08 272.06 C 679.09 280.07 681.73 287.94 683.03 296.12 C 676.43 295.29 669.87 294.15 663.25 293.44 C 663.73 293.14 664.22 292.84 664.72 292.54 C 651.47 291.19 638.62 287.40 625.37 286.11 C 623.49 299.06 619.78 311.63 617.24 324.45 C 615.97 330.41 614.63 336.35 613.25 342.28 C 610.14 340.64 607.15 338.78 604.37 336.63 C 591.96 326.66 579.67 316.54 566.96 306.96 C 557.73 316.78 549.32 327.32 540.61 337.59 C 536.78 342.26 532.85 346.86 528.51 351.07 C 520.26 333.52 513.12 315.46 504.75 297.96 C 496.21 300.68 488.07 304.46 479.74 307.73 C 470.07 311.53 460.56 315.77 450.69 319.05 C 450.59 299.64 453.76 280.39 453.87 260.98 C 444.03 259.52 434.11 258.72 424.21 257.82 C 414.91 256.72 405.50 256.36 396.34 254.32 C 398.62 250.01 401.05 245.78 403.69 241.68 C 408.66 233.93 413.18 225.91 418.13 218.15 C 420.97 213.69 423.69 209.14 426.07 204.41 C 415.75 197.55 405.29 190.90 394.99 184.00 C 389.20 180.17 383.30 176.49 377.78 172.25 C 385.41 166.86 393.67 162.48 401.63 157.62 C 410.21 152.42 419.02 147.60 427.35 142.00 C 423.12 132.73 417.75 124.04 412.91 115.08 C 408.54 106.99 403.90 99.04 399.73 90.84 C 419.03 88.71 438.51 88.95 457.84 87.07 C 458.47 77.38 457.49 67.68 457.63 57.99 C 457.75 48.30 457.22 38.61 457.30 28.92 C 462.98 30.99 468.54 33.39 473.97 36.05 C 482.99 40.47 492.25 44.37 501.29 48.75 C 504.28 50.11 507.33 51.63 510.65 51.95 C 513.85 47.75 515.66 42.71 518.05 38.04 Z" />
<path fill="#000000" opacity="1.00" d=" M 152.33 1.82 C 158.39 7.74 163.67 14.40 169.13 20.87 C 176.07 29.31 183.26 37.54 190.35 45.85 C 206.23 34.50 220.80 21.43 236.61 9.98 C 241.21 28.91 244.70 48.13 250.09 66.86 C 269.14 63.82 287.88 58.93 307.05 56.70 C 302.97 75.64 296.77 94.04 292.50 112.94 C 301.71 116.32 311.24 118.69 320.61 121.59 C 329.74 124.63 339.07 127.07 348.11 130.40 C 335.50 145.27 321.24 158.67 308.83 173.73 C 317.45 182.58 326.41 191.09 335.10 199.88 C 340.07 204.70 345.16 209.43 349.44 214.90 C 340.97 218.69 331.99 221.11 323.33 224.38 C 313.80 227.94 304.10 231.07 294.75 235.10 C 298.27 245.97 302.08 256.74 305.31 267.70 C 307.54 275.23 310.27 282.61 312.18 290.24 C 303.99 289.88 295.91 288.44 287.81 287.25 C 276.83 285.77 265.89 283.94 254.87 282.65 C 250.19 301.57 247.94 320.99 244.24 340.12 C 237.11 335.97 230.75 330.70 224.00 326.00 C 214.70 319.43 205.73 312.38 196.19 306.15 C 184.03 321.32 172.76 337.20 160.19 352.04 C 150.85 334.98 143.35 316.98 133.90 299.99 C 115.93 307.10 99.02 316.70 80.84 323.29 C 80.31 312.86 81.03 302.43 81.16 292.00 C 81.34 283.08 81.63 274.16 81.72 265.23 C 62.34 263.93 42.90 263.41 23.54 261.89 C 25.01 258.35 26.62 254.87 28.52 251.53 C 34.86 240.45 40.86 229.18 47.19 218.09 C 48.44 215.79 49.80 213.52 50.59 211.01 C 48.05 207.87 44.27 206.19 40.91 204.12 C 27.56 196.23 14.20 188.37 0.99 180.24 C 16.95 169.17 33.56 159.07 49.47 147.93 C 48.13 145.18 46.76 142.43 45.18 139.82 C 36.54 125.96 28.19 111.94 19.82 97.92 C 29.38 96.08 39.12 95.61 48.79 94.63 C 58.42 93.66 68.08 92.96 77.65 91.51 C 77.16 72.15 74.62 52.91 74.19 33.55 C 78.30 34.65 82.35 36.01 86.25 37.74 C 96.55 42.30 107.17 46.08 117.52 50.53 C 120.93 51.94 124.30 53.54 127.93 54.27 C 130.42 51.71 131.72 48.29 133.11 45.07 C 136.14 37.57 139.61 30.26 142.87 22.85 C 146.00 15.83 148.97 8.74 152.33 1.82 Z" />
<path fill="#000000" opacity="1.00" d=" M 1134.67 4.61 C 1147.25 0.96 1161.63 3.78 1171.58 12.41 C 1179.61 19.02 1184.35 29.08 1185.00 39.40 L 1185.00 43.64 C 1184.12 52.64 1180.26 61.41 1173.70 67.70 C 1164.10 77.30 1149.37 81.05 1136.26 77.81 C 1125.03 75.15 1115.18 67.13 1110.41 56.60 C 1106.37 47.78 1105.95 37.37 1109.29 28.25 C 1113.38 16.96 1123.11 7.88 1134.67 4.61 M 1140.39 14.50 C 1131.11 16.13 1122.92 22.81 1119.64 31.67 C 1115.86 41.51 1118.65 53.44 1126.44 60.55 C 1134.43 68.08 1146.88 70.04 1156.96 65.88 C 1162.97 63.42 1168.08 58.81 1171.13 53.06 C 1173.98 47.70 1174.67 41.31 1173.41 35.40 C 1171.71 27.78 1166.50 21.09 1159.64 17.40 C 1153.83 14.20 1146.88 13.28 1140.39 14.50 Z" />
<path fill="#000000" opacity="1.00" d=" M 906.33 3.82 C 912.23 9.58 917.37 16.04 922.68 22.33 C 929.77 30.95 937.10 39.36 944.35 47.85 C 960.23 36.50 974.80 23.43 990.61 11.99 C 995.21 30.91 998.69 50.13 1004.09 68.86 C 1023.14 65.82 1041.88 60.93 1061.05 58.69 C 1056.97 77.63 1050.77 96.04 1046.50 114.94 C 1057.35 118.92 1068.63 121.51 1079.59 125.18 C 1087.09 127.58 1094.71 129.65 1102.11 132.41 C 1089.50 147.28 1075.23 160.67 1062.83 175.73 C 1071.45 184.58 1080.41 193.10 1089.10 201.88 C 1094.06 206.70 1099.16 211.43 1103.44 216.90 C 1094.97 220.69 1085.99 223.10 1077.33 226.38 C 1067.80 229.95 1058.09 233.07 1048.75 237.10 C 1052.28 247.96 1056.07 258.74 1059.30 269.70 C 1061.53 277.23 1064.27 284.61 1066.19 292.24 C 1057.99 291.88 1049.91 290.43 1041.81 289.25 C 1030.82 287.76 1019.88 285.94 1008.87 284.65 C 1006.53 293.50 1005.06 302.55 1003.52 311.56 C 1001.86 321.77 999.97 331.95 998.22 342.14 C 991.13 337.94 984.74 332.72 978.01 328.01 C 968.71 321.43 959.73 314.39 950.19 308.15 C 938.02 323.31 926.76 339.20 914.19 354.04 C 904.84 336.99 897.35 318.98 887.90 301.99 C 869.93 309.11 853.02 318.70 834.84 325.30 C 834.30 314.87 835.04 304.43 835.16 294.00 C 835.34 285.08 835.63 276.16 835.72 267.23 C 816.34 265.92 796.90 265.41 777.53 263.89 C 779.00 260.35 780.62 256.87 782.51 253.54 C 788.74 242.67 794.62 231.62 800.82 220.74 C 802.20 218.23 803.72 215.74 804.60 212.99 C 803.13 211.22 801.22 209.89 799.28 208.70 C 784.47 199.96 769.64 191.25 754.99 182.24 C 770.95 171.17 787.56 161.07 803.47 149.93 C 802.13 147.18 800.76 144.43 799.18 141.82 C 790.54 127.96 782.18 113.94 773.82 99.93 C 783.38 98.08 793.12 97.62 802.79 96.63 C 812.41 95.66 822.07 94.96 831.65 93.51 C 831.17 74.15 828.62 54.91 828.19 35.55 C 832.30 36.66 836.34 38.01 840.24 39.72 C 851.01 44.43 862.06 48.44 872.86 53.10 C 875.81 54.33 878.76 55.65 881.93 56.27 C 884.42 53.71 885.71 50.30 887.11 47.07 C 890.13 39.57 893.61 32.25 896.87 24.85 C 900.00 17.83 902.97 10.74 906.33 3.82 Z" />
<path fill="#000000" opacity="1.00" d=" M 1131.02 27.04 C 1137.61 27.07 1144.23 26.64 1150.82 27.25 C 1154.49 27.58 1158.67 29.06 1160.15 32.77 C 1162.10 37.45 1160.11 42.44 1158.37 46.83 C 1159.68 49.54 1161.01 52.24 1162.34 54.94 C 1158.28 54.99 1154.24 54.99 1150.19 54.95 C 1148.99 52.64 1147.79 50.33 1146.57 48.04 C 1145.65 48.54 1144.77 49.09 1143.92 49.67 C 1143.18 51.33 1143.04 53.17 1142.68 54.93 C 1138.79 55.01 1134.90 55.01 1131.02 55.01 C 1130.97 45.68 1130.97 36.36 1131.02 27.04 M 1143.24 35.38 C 1143.23 37.11 1143.24 38.84 1143.26 40.57 C 1145.55 40.27 1148.00 40.16 1150.00 38.83 C 1149.76 37.79 1149.31 36.87 1148.66 36.07 C 1146.88 35.63 1145.04 35.54 1143.24 35.38 Z" />
</g>
</svg>
